# xmcd CD database file
#
# Track frame offsets:
#	150
#	16648
#	33266
#	48492
#	69460
#	85779
#	99917
#	116379
#	132409
#	151640
#	168551
#	188576
#	206312
#	218443
#	239099
#	255975
#
# Disc length: 3658 seconds
#
# Revision: 0
# Processed by: cddbd v1.5.1PL0 Copyright (c) Steve Scherf et al.
# Submitted via: CDex 1.51
#
DISCID=be0e4810
DTITLE=Flemming Band - Highway nach Süden
DYEAR=1900
DGENRE=Country
TTITLE0=Mr. Right
TTITLE1=Lady Jane
TTITLE2=Highway nach Süden
TTITLE3=Harley D.
TTITLE4=Träume im Gepäck
TTITLE5=Rodeo
TTITLE6=Durch jede Zeit
TTITLE7=Wölfe
TTITLE8=Für ein paar Stunden
TTITLE9=Sombrero
TTITLE10=Heroes
TTITLE11=Man in Black
TTITLE12=Freunde
TTITLE13=Viertel nach vier
TTITLE14=One Night Stand
TTITLE15=Rose A Lee
EXTD=
EXTT0=
EXTT1=
EXTT2=
EXTT3=
EXTT4=
EXTT5=
EXTT6=
EXTT7=
EXTT8=
EXTT9=
EXTT10=
EXTT11=
EXTT12=
EXTT13=
EXTT14=
EXTT15=
PLAYORDER=
